<?xml version="1.0" encoding="UTF-8" standalone="no"?>
<svg
   xmlns:dc="http://purl.org/dc/elements/1.1/"
   xmlns:cc="http://creativecommons.org/ns#"
   xmlns:rdf="http://www.w3.org/1999/02/22-rdf-syntax-ns#"
   xmlns:svg="http://www.w3.org/2000/svg"
   xmlns="http://www.w3.org/2000/svg"
   xmlns:sodipodi="http://sodipodi.sourceforge.net/DTD/sodipodi-0.dtd"
   xmlns:inkscape="http://www.inkscape.org/namespaces/inkscape"
   id="Layer_1"
   style="enable-background:new 0 0 512 512;"
   version="1.1"
   viewBox="0 0 512 512"
   xml:space="preserve"
   inkscape:version="0.48.4 r9939"
   width="100%"
   height="100%"
   sodipodi:docname="refresh.svg"
   inkscape:export-filename="/home/xpostman/projects/code/asvd.github.io/jailed/demos/web/process/refresh.png"
   inkscape:export-xdpi="90"
   inkscape:export-ydpi="90"><metadata
     id="metadata3047"><rdf:RDF><cc:Work
         rdf:about=""><dc:format>image/svg+xml</dc:format><dc:type
           rdf:resource="http://purl.org/dc/dcmitype/StillImage" /><dc:title></dc:title></cc:Work></rdf:RDF></metadata><defs
     id="defs3045" /><sodipodi:namedview
     pagecolor="#ffffff"
     bordercolor="#666666"
     borderopacity="1"
     objecttolerance="10"
     gridtolerance="10"
     guidetolerance="10"
     inkscape:pageopacity="0"
     inkscape:pageshadow="2"
     inkscape:window-width="1920"
     inkscape:window-height="1005"
     id="namedview3043"
     showgrid="false"
     inkscape:zoom="0.4609375"
     inkscape:cx="-279.86441"
     inkscape:cy="169.22034"
     inkscape:window-x="-2"
     inkscape:window-y="-3"
     inkscape:window-maximized="1"
     inkscape:current-layer="Layer_1" /><style
     type="text/css"
     id="style3037">
	.st0{fill:#3A3A3A;}
</style><g
     id="g3039"
     style="fill-opacity:1;fill:#aabbcc"><path
       class="st0"
       d="M458.2,254c0-10.3-8.3-18.6-18.7-18.6c-8.6,0-15.9,5.9-18,13.8l0,0c0,0.1-0.1,0.3-0.1,0.6   c0,0.2-0.1,0.4-0.1,0.6c-0.5,2.3-1.7,6.6-1.9,7.6c-1.8,7.6-3.8,15-6.6,22.1c-5.4,14.2-12.8,27.2-21.4,38.5l-1.6,2.1l-1.7,2   c-1.1,1.3-2.2,2.7-3.4,4c-2.4,2.5-4.6,5.1-7,7.5c-4.7,4.8-9.8,9.1-14.8,13c-10.2,7.7-20.5,13.8-30.6,18.2   c-10,4.4-19.5,7.3-28.1,9.1c-2.1,0.4-4.2,0.9-6.2,1.2c-2,0.3-3.9,0.6-5.8,0.9c-1.9,0.2-3.7,0.4-5.4,0.6c-0.9,0.1-1.7,0.2-2.5,0.2   c-0.8,0-1.6,0.1-2.4,0.1c-1.5,0.1-3,0.2-4.4,0.2c-1.3,0-2.4,0-3.5,0c-1.1,0-2,0-2.9,0c-0.2,0-0.5,0-0.8,0v-26.4   c0-8.9-10.3-13.8-17.2-8.1L245,349c-22.2,15.8-43.2,33.3-62.7,52.4c-6.9,5.7-6.9,16.3,0,21.9l0.4,0.4c19.3,18.8,40,36.1,62,51.8   l8.6,6.1c6.9,5.6,17.2,0.8,17.2-8.1V447c0.3,0,0.6-0.1,0.9-0.1c0.6-0.1,1.1-0.1,2-0.2c1.6-0.2,3.4-0.4,5.3-0.6   c1.9-0.2,4-0.5,6.1-0.8c2-0.4,4.1-0.7,6.4-1.1c1.1-0.2,2.3-0.4,3.4-0.6c1.2-0.2,2.4-0.5,3.6-0.8c2.4-0.6,5-1.1,7.6-1.8   c2.6-0.8,5.4-1.5,8.2-2.4c2.8-0.8,5.7-1.9,8.7-2.9c11.8-4.2,24.8-10.1,37.9-18c13.1-7.9,26.2-18,38.5-30.2   c6.1-6.1,12-12.7,17.5-19.9c2.8-3.5,5.4-7.3,8-11c1.3-1.9,2.5-3.9,3.7-5.8l1.8-2.9l1.7-3c9.3-16.1,16.5-34,21-52.7   c2.3-9.3,3.7-18.9,4.7-28.5c0.2-2.4,0.5-4.9,0.6-7.3C458.2,255.5,458.2,254.7,458.2,254z"
       id="XMLID_1138_"
       style="fill-opacity:1;fill:#aabbcc" /><path
       class="st0"
       d="M53.8,258c0,10.3,8.3,18.6,18.7,18.6c8.6,0,15.9-5.9,18-13.8l0,0c0-0.1,0.1-0.3,0.1-0.6   c0-0.2,0.1-0.4,0.1-0.6c0.5-2.3,1.7-6.6,1.9-7.6c1.8-7.6,3.8-15,6.6-22.1c5.4-14.2,12.8-27.2,21.4-38.5l1.6-2.1l1.7-2   c1.1-1.3,2.2-2.7,3.4-4c2.4-2.5,4.6-5.1,7-7.5c4.7-4.8,9.8-9.1,14.8-13c10.2-7.7,20.5-13.8,30.6-18.2c10-4.4,19.5-7.3,28.1-9.1   c2.1-0.4,4.2-0.9,6.2-1.2c2-0.3,3.9-0.6,5.8-0.9c1.9-0.2,3.7-0.4,5.4-0.6c0.9-0.1,1.7-0.2,2.5-0.2c0.8,0,1.6-0.1,2.4-0.1   c1.5-0.1,3-0.2,4.4-0.2c1.3,0,2.4,0,3.5,0c1.1,0,2,0,2.9,0c0.2,0,0.5,0,0.8,0v26.4c0,8.9,10.3,13.8,17.2,8.1l8.3-5.9   c22.2-15.8,43.2-33.3,62.7-52.4c6.9-5.7,6.9-16.3,0-21.9l-0.4-0.4c-19.3-18.8-40-36.1-62-51.8l-8.6-6.1c-6.9-5.6-17.2-0.8-17.2,8.1   V65c-0.3,0-0.6,0.1-0.9,0.1c-0.6,0.1-1.1,0.1-2,0.2c-1.6,0.2-3.4,0.4-5.3,0.6c-1.9,0.2-4,0.5-6.1,0.8c-2,0.4-4.1,0.7-6.4,1.1   c-1.1,0.2-2.3,0.4-3.4,0.6c-1.2,0.2-2.4,0.5-3.6,0.8c-2.4,0.6-5,1.1-7.6,1.8c-2.6,0.8-5.4,1.5-8.2,2.4c-2.8,0.8-5.7,1.9-8.7,2.9   c-11.8,4.2-24.8,10.1-37.9,18c-13.1,7.9-26.2,18-38.5,30.2c-6.1,6.1-12,12.7-17.5,19.9c-2.8,3.5-5.4,7.3-8,11   c-1.3,1.9-2.5,3.9-3.7,5.8l-1.8,2.9l-1.7,3c-9.3,16.1-16.5,34-21,52.7c-2.3,9.3-3.7,18.9-4.7,28.5c-0.2,2.4-0.5,4.9-0.6,7.3   C53.8,256.5,53.8,257.3,53.8,258z"
       id="XMLID_1202_"
       style="fill-opacity:1;fill:#aabbcc" /></g></svg>